STARTFONT 2.1
FONT -FontForge-Bitstream Vera Sans-Book-O-Normal-Sans--10-100-75-75-P-59-ISO10646-1
SIZE 10 75 75
FONTBOUNDINGBOX 16 12 -3 -2
COMMENT "Generated by fontforge, http://fontforge.sourceforge.net"
COMMENT "Copyright (c) 2003 by Bitstream, Inc. All Rights Reserved."
STARTPROPERTIES 41
FOUNDRY "FontForge"
FAMILY_NAME "Bitstream Vera Sans"
WEIGHT_NAME "Book"
SLANT "O"
SETWIDTH_NAME "Normal"
ADD_STYLE_NAME "Sans"
PIXEL_SIZE 10
POINT_SIZE 100
RESOLUTION_X 75
RESOLUTION_Y 75
SPACING "P"
AVERAGE_WIDTH 59
CHARSET_REGISTRY "ISO10646"
CHARSET_ENCODING "1"
FONTNAME_REGISTRY ""
CHARSET_COLLECTIONS "ISO8859-9 ISO10646-1"
FONT_NAME "BitstreamVeraSans-Oblique"
FACE_NAME "Bitstream Vera Sans Oblique"
COPYRIGHT "Copyright (c) 2003 by Bitstream, Inc. All Rights Reserved."
FONT_VERSION "Release 1.10"
FONT_ASCENT 8
FONT_DESCENT 2
UNDERLINE_POSITION -1
UNDERLINE_THICKNESS 1
X_HEIGHT 4
CAP_HEIGHT 6
RAW_ASCENT 759
RAW_DESCENT 240
ITALIC_ANGLE 5056
NORM_SPACE 3
RELATIVE_WEIGHT 40
RELATIVE_SETWIDTH 50
SUPERSCRIPT_X 0
SUPERSCRIPT_Y 2
SUPERSCRIPT_SIZE 5
SUBSCRIPT_X 0
SUBSCRIPT_Y -2
SUBSCRIPT_SIZE 5
FIGURE_WIDTH 6
AVG_LOWERCASE_WIDTH 56
AVG_UPPERCASE_WIDTH 67
ENDPROPERTIES
CHARS 268
STARTCHAR space
ENCODING 32
SWIDTH 317 0
DWIDTH 3 0
BBX 1 1 0 0
BITMAP
00
ENDCHAR
STARTCHAR exclam
ENCODING 33
SWIDTH 400 0
DWIDTH 4 0
BBX 3 7 0 0
BITMAP
20
20
40
40
40
00
80
ENDCHAR
STARTCHAR quotedbl
ENCODING 34
SWIDTH 459 0
DWIDTH 5 0
BBX 3 3 1 4
BITMAP
A0
A0
A0
ENDCHAR
STARTCHAR numbersign
ENCODING 35
SWIDTH 837 0
DWIDTH 8 0
BBX 7 7 1 0
BITMAP
14
28
7E
28
FC
50
50
ENDCHAR
STARTCHAR dollar
ENCODING 36
SWIDTH 636 0
DWIDTH 6 0
BBX 5 8 0 -1
BITMAP
10
38
60
60
18
28
F0
20
ENDCHAR
STARTCHAR percent
ENCODING 37
SWIDTH 950 0
DWIDTH 10 0
BBX 8 7 1 0
BITMAP
62
A4
A8
D3
15
25
46
ENDCHAR
STARTCHAR ampersand
ENCODING 38
SWIDTH 779 0
DWIDTH 8 0
BBX 7 7 0 0
BITMAP
18
24
20
52
8C
88
74
ENDCHAR
STARTCHAR quotesingle
ENCODING 39
SWIDTH 274 0
DWIDTH 3 0
BBX 1 3 1 4
BITMAP
80
80
80
ENDCHAR
STARTCHAR parenleft
ENCODING 40
SWIDTH 390 0
DWIDTH 4 0
BBX 4 9 1 -1
BITMAP
10
20
40
C0
80
80
80
80
40
ENDCHAR
STARTCHAR parenright
ENCODING 41
SWIDTH 390 0
DWIDTH 4 0
BBX 4 9 -1 -1
BITMAP
20
10
10
10
10
30
20
40
80
ENDCHAR
STARTCHAR asterisk
ENCODING 42
SWIDTH 500 0
DWIDTH 5 0
BBX 5 4 0 3
BITMAP
A8
70
70
A8
ENDCHAR
STARTCHAR plus
ENCODING 43
SWIDTH 837 0
DWIDTH 8 0
BBX 7 7 1 0
BITMAP
10
10
10
FE
10
10
10
ENDCHAR
STARTCHAR comma
ENCODING 44
SWIDTH 317 0
DWIDTH 3 0
BBX 2 2 -1 -1
BITMAP
40
80
ENDCHAR
STARTCHAR hyphen
ENCODING 45
SWIDTH 360 0
DWIDTH 4 0
BBX 3 1 0 2
BITMAP
E0
ENDCHAR
STARTCHAR period
ENCODING 46
SWIDTH 317 0
DWIDTH 3 0
BBX 1 1 0 0
BITMAP
80
ENDCHAR
STARTCHAR slash
ENCODING 47
SWIDTH 336 0
DWIDTH 3 0
BBX 5 8 -1 -1
BITMAP
08
10
10
20
20
40
40
80
ENDCHAR
STARTCHAR zero
ENCODING 48
SWIDTH 636 0
DWIDTH 6 0
BBX 5 7 0 0
BITMAP
30
48
88
88
88
90
60
ENDCHAR
STARTCHAR one
ENCODING 49
SWIDTH 636 0
DWIDTH 6 0
BBX 4 7 0 0
BITMAP
70
10
10
30
20
20
F0
ENDCHAR
STARTCHAR two
ENCODING 50
SWIDTH 636 0
DWIDTH 6 0
BBX 6 7 -1 0
BITMAP
38
44
04
08
30
40
F8
ENDCHAR
STARTCHAR three
ENCODING 51
SWIDTH 636 0
DWIDTH 6 0
BBX 6 7 -1 0
BITMAP
3C
44
04
38
04
84
78
ENDCHAR
STARTCHAR four
ENCODING 52
SWIDTH 636 0
DWIDTH 6 0
BBX 5 7 0 0
BITMAP
08
18
30
50
F8
20
20
ENDCHAR
STARTCHAR five
ENCODING 53
SWIDTH 636 0
DWIDTH 6 0
BBX 5 7 0 0
BITMAP
78
40
70
08
08
18
F0
ENDCHAR
STARTCHAR six
ENCODING 54
SWIDTH 636 0
DWIDTH 6 0
BBX 5 7 0 0
BITMAP
38
40
C0
B8
C8
88
70
ENDCHAR
STARTCHAR seven
ENCODING 55
SWIDTH 636 0
DWIDTH 6 0
BBX 5 7 0 0
BITMAP
F8
10
10
20
20
40
80
ENDCHAR
STARTCHAR eight
ENCODING 56
SWIDTH 636 0
DWIDTH 6 0
BBX 6 7 0 0
BITMAP
38
44
44
38
C8
88
70
ENDCHAR
STARTCHAR nine
ENCODING 57
SWIDTH 636 0
DWIDTH 6 0
BBX 5 7 0 0
BITMAP
70
88
88
F8
18
10
E0
ENDCHAR
STARTCHAR colon
ENCODING 58
SWIDTH 336 0
DWIDTH 3 0
BBX 2 5 0 0
BITMAP
40
00
00
00
80
ENDCHAR
STARTCHAR semicolon
ENCODING 59
SWIDTH 336 0
DWIDTH 3 0
BBX 3 6 -1 -1
BITMAP
20
00
00
00
40
80
ENDCHAR
STARTCHAR less
ENCODING 60
SWIDTH 837 0
DWIDTH 8 0
BBX 6 5 1 1
BITMAP
04
38
C0
38
04
ENDCHAR
STARTCHAR equal
ENCODING 61
SWIDTH 837 0
DWIDTH 8 0
BBX 6 3 1 2
BITMAP
FC
00
FC
ENDCHAR
STARTCHAR greater
ENCODING 62
SWIDTH 837 0
DWIDTH 8 0
BBX 6 5 1 1
BITMAP
80
70
0C
70
80
ENDCHAR
STARTCHAR question
ENCODING 63
SWIDTH 530 0
DWIDTH 5 0
BBX 4 7 1 0
BITMAP
F0
10
20
40
40
00
80
ENDCHAR
STARTCHAR at
ENCODING 64
SWIDTH 1000 0
DWIDTH 10 0
BBX 9 9 1 -2
BITMAP
1E00
2180
4080
8E80
9380
9F00
8000
4200
3C00
ENDCHAR
STARTCHAR A
ENCODING 65
SWIDTH 684 0
DWIDTH 7 0
BBX 7 7 -1 0
BITMAP
04
0C
14
24
3E
42
82
ENDCHAR
STARTCHAR B
ENCODING 66
SWIDTH 686 0
DWIDTH 7 0
BBX 6 7 0 0
BITMAP
3C
24
44
78
44
84
F8
ENDCHAR
STARTCHAR C
ENCODING 67
SWIDTH 698 0
DWIDTH 7 0
BBX 7 7 0 0
BITMAP
3C
62
C0
80
80
84
78
ENDCHAR
STARTCHAR D
ENCODING 68
SWIDTH 770 0
DWIDTH 8 0
BBX 7 7 0 0
BITMAP
3C
22
42
42
42
84
F8
ENDCHAR
STARTCHAR E
ENCODING 69
SWIDTH 631 0
DWIDTH 6 0
BBX 6 7 0 0
BITMAP
3C
20
40
78
40
80
F8
ENDCHAR
STARTCHAR F
ENCODING 70
SWIDTH 575 0
DWIDTH 6 0
BBX 6 7 0 0
BITMAP
3C
20
40
78
40
80
80
ENDCHAR
STARTCHAR G
ENCODING 71
SWIDTH 774 0
DWIDTH 8 0
BBX 7 7 0 0
BITMAP
3C
62
C0
8E
82
84
7C
ENDCHAR
STARTCHAR H
ENCODING 72
SWIDTH 751 0
DWIDTH 8 0
BBX 8 7 0 0
BITMAP
21
21
42
7E
42
84
84
ENDCHAR
STARTCHAR I
ENCODING 73
SWIDTH 294 0
DWIDTH 3 0
BBX 3 7 0 0
BITMAP
20
20
40
40
40
80
80
ENDCHAR
STARTCHAR J
ENCODING 74
SWIDTH 294 0
DWIDTH 3 0
BBX 4 9 -2 -2
BITMAP
10
10
10
20
20
20
20
40
C0
ENDCHAR
STARTCHAR K
ENCODING 75
SWIDTH 655 0
DWIDTH 7 0
BBX 6 7 0 0
BITMAP
24
28
50
60
50
88
84
ENDCHAR
STARTCHAR L
ENCODING 76
SWIDTH 557 0
DWIDTH 6 0
BBX 5 7 0 0
BITMAP
20
20
40
40
40
80
F8
ENDCHAR
STARTCHAR M
ENCODING 77
SWIDTH 862 0
DWIDTH 8 0
BBX 8 7 0 0
BITMAP
21
23
56
5A
52
84
84
ENDCHAR
STARTCHAR N
ENCODING 78
SWIDTH 748 0
DWIDTH 7 0
BBX 7 7 0 0
BITMAP
22
22
54
54
54
88
88
ENDCHAR
STARTCHAR O
ENCODING 79
SWIDTH 787 0
DWIDTH 8 0
BBX 7 7 0 0
BITMAP
3C
42
82
82
82
84
78
ENDCHAR
STARTCHAR P
ENCODING 80
SWIDTH 603 0
DWIDTH 6 0
BBX 6 7 0 0
BITMAP
3C
24
44
78
40
80
80
ENDCHAR
STARTCHAR Q
ENCODING 81
SWIDTH 787 0
DWIDTH 8 0
BBX 7 8 0 -1
BITMAP
3C
42
82
82
82
84
78
08
ENDCHAR
STARTCHAR R
ENCODING 82
SWIDTH 694 0
DWIDTH 7 0
BBX 6 7 0 0
BITMAP
3C
24
44
78
48
88
84
ENDCHAR
STARTCHAR S
ENCODING 83
SWIDTH 634 0
DWIDTH 6 0
BBX 7 7 0 0
BITMAP
3C
42
40
38
04
84
78
ENDCHAR
STARTCHAR T
ENCODING 84
SWIDTH 610 0
DWIDTH 6 0
BBX 7 7 1 0
BITMAP
FE
10
20
20
20
40
40
ENDCHAR
STARTCHAR U
ENCODING 85
SWIDTH 731 0
DWIDTH 7 0
BBX 6 7 1 0
BITMAP
44
44
84
88
88
88
70
ENDCHAR
STARTCHAR V
ENCODING 86
SWIDTH 684 0
DWIDTH 7 0
BBX 7 7 1 0
BITMAP
82
84
88
48
50
50
60
ENDCHAR
STARTCHAR W
ENCODING 87
SWIDTH 988 0
DWIDTH 10 0
BBX 9 7 1 0
BITMAP
8880
9900
9900
AA00
A600
4400
4400
ENDCHAR
STARTCHAR X
ENCODING 88
SWIDTH 685 0
DWIDTH 7 0
BBX 7 7 0 0
BITMAP
22
24
18
10
28
48
84
ENDCHAR
STARTCHAR Y
ENCODING 89
SWIDTH 610 0
DWIDTH 6 0
BBX 6 7 1 0
BITMAP
84
48
50
20
20
40
40
ENDCHAR
STARTCHAR Z
ENCODING 90
SWIDTH 685 0
DWIDTH 7 0
BBX 7 7 0 0
BITMAP
7E
04
08
10
20
40
FC
ENDCHAR
STARTCHAR bracketleft
ENCODING 91
SWIDTH 390 0
DWIDTH 4 0
BBX 4 9 0 -1
BITMAP
30
20
40
40
40
40
40
80
C0
ENDCHAR
STARTCHAR backslash
ENCODING 92
SWIDTH 336 0
DWIDTH 3 0
BBX 2 8 1 -1
BITMAP
80
80
80
80
40
40
40
40
ENDCHAR
STARTCHAR bracketright
ENCODING 93
SWIDTH 390 0
DWIDTH 4 0
BBX 4 9 0 -1
BITMAP
30
10
20
20
20
20
20
40
C0
ENDCHAR
STARTCHAR asciicircum
ENCODING 94
SWIDTH 837 0
DWIDTH 8 0
BBX 6 3 1 4
BITMAP
30
48
84
ENDCHAR
STARTCHAR underscore
ENCODING 95
SWIDTH 500 0
DWIDTH 5 0
BBX 5 1 0 -2
BITMAP
F8
ENDCHAR
STARTCHAR grave
ENCODING 96
SWIDTH 500 0
DWIDTH 5 0
BBX 2 2 1 6
BITMAP
80
40
ENDCHAR
STARTCHAR a
ENCODING 97
SWIDTH 612 0
DWIDTH 6 0
BBX 5 5 0 0
BITMAP
78
08
78
98
F0
ENDCHAR
STARTCHAR b
ENCODING 98
SWIDTH 634 0
DWIDTH 6 0
BBX 6 8 0 0
BITMAP
20
20
40
5C
64
44
CC
B8
ENDCHAR
STARTCHAR c
ENCODING 99
SWIDTH 549 0
DWIDTH 6 0
BBX 5 5 0 0
BITMAP
78
C0
80
80
70
ENDCHAR
STARTCHAR d
ENCODING 100
SWIDTH 634 0
DWIDTH 6 0
BBX 6 8 0 0
BITMAP
04
04
08
78
C8
88
90
F0
ENDCHAR
STARTCHAR e
ENCODING 101
SWIDTH 615 0
DWIDTH 6 0
BBX 5 5 0 0
BITMAP
70
C8
F8
80
70
ENDCHAR
STARTCHAR f
ENCODING 102
SWIDTH 352 0
DWIDTH 4 0
BBX 4 8 0 0
BITMAP
30
40
40
E0
40
40
80
80
ENDCHAR
STARTCHAR g
ENCODING 103
SWIDTH 634 0
DWIDTH 6 0
BBX 6 7 0 -2
BITMAP
74
CC
88
88
78
10
F0
ENDCHAR
STARTCHAR h
ENCODING 104
SWIDTH 633 0
DWIDTH 6 0
BBX 5 8 0 0
BITMAP
20
20
40
58
68
48
90
90
ENDCHAR
STARTCHAR i
ENCODING 105
SWIDTH 277 0
DWIDTH 3 0
BBX 3 8 0 0
BITMAP
20
00
00
40
40
C0
80
80
ENDCHAR
STARTCHAR j
ENCODING 106
SWIDTH 277 0
DWIDTH 3 0
BBX 3 10 -1 -2
BITMAP
20
00
00
20
20
20
40
40
40
C0
ENDCHAR
STARTCHAR k
ENCODING 107
SWIDTH 579 0
DWIDTH 6 0
BBX 5 8 0 0
BITMAP
20
20
40
48
50
60
90
88
ENDCHAR
STARTCHAR l
ENCODING 108
SWIDTH 277 0
DWIDTH 3 0
BBX 3 8 0 0
BITMAP
20
20
40
40
40
40
80
80
ENDCHAR
STARTCHAR m
ENCODING 109
SWIDTH 974 0
DWIDTH 10 0
BBX 9 5 0 0
BITMAP
7B80
4C80
C880
9900
9100
ENDCHAR
STARTCHAR n
ENCODING 110
SWIDTH 633 0
DWIDTH 6 0
BBX 5 5 0 0
BITMAP
78
48
C8
90
90
ENDCHAR
STARTCHAR o
ENCODING 111
SWIDTH 611 0
DWIDTH 6 0
BBX 5 5 0 0
BITMAP
70
C8
88
98
70
ENDCHAR
STARTCHAR p
ENCODING 112
SWIDTH 634 0
DWIDTH 6 0
BBX 6 7 -1 -2
BITMAP
3C
24
44
4C
78
80
80
ENDCHAR
STARTCHAR q
ENCODING 113
SWIDTH 634 0
DWIDTH 6 0
BBX 6 7 0 -2
BITMAP
74
CC
88
88
F8
10
10
ENDCHAR
STARTCHAR r
ENCODING 114
SWIDTH 411 0
DWIDTH 4 0
BBX 4 5 0 0
BITMAP
70
40
C0
80
80
ENDCHAR
STARTCHAR s
ENCODING 115
SWIDTH 520 0
DWIDTH 5 0
BBX 5 5 -1 0
BITMAP
38
40
38
08
F0
ENDCHAR
STARTCHAR t
ENCODING 116
SWIDTH 392 0
DWIDTH 4 0
BBX 3 7 0 0
BITMAP
40
40
E0
40
80
80
E0
ENDCHAR
STARTCHAR u
ENCODING 117
SWIDTH 633 0
DWIDTH 6 0
BBX 5 5 0 0
BITMAP
48
48
98
90
F0
ENDCHAR
STARTCHAR v
ENCODING 118
SWIDTH 591 0
DWIDTH 6 0
BBX 5 5 1 0
BITMAP
88
90
A0
60
40
ENDCHAR
STARTCHAR w
ENCODING 119
SWIDTH 817 0
DWIDTH 8 0
BBX 7 5 1 0
BITMAP
92
B4
D4
D8
90
ENDCHAR
STARTCHAR x
ENCODING 120
SWIDTH 591 0
DWIDTH 6 0
BBX 5 5 0 0
BITMAP
48
30
20
50
88
ENDCHAR
STARTCHAR y
ENCODING 121
SWIDTH 591 0
DWIDTH 6 0
BBX 6 7 0 -2
BITMAP
44
48
50
20
20
40
80
ENDCHAR
STARTCHAR z
ENCODING 122
SWIDTH 524 0
DWIDTH 5 0
BBX 5 5 0 0
BITMAP
78
10
20
40
F0
ENDCHAR
STARTCHAR braceleft
ENCODING 123
SWIDTH 636 0
DWIDTH 6 0
BBX 5 9 1 -1
BITMAP
18
20
20
20
C0
40
40
40
60
ENDCHAR
STARTCHAR bar
ENCODING 124
SWIDTH 336 0
DWIDTH 3 0
BBX 1 10 1 -2
BITMAP
80
80
80
80
80
80
80
80
80
80
ENDCHAR
STARTCHAR braceright
ENCODING 125
SWIDTH 636 0
DWIDTH 6 0
BBX 5 9 0 -1
BITMAP
30
10
10
10
18
20
20
20
C0
ENDCHAR
STARTCHAR asciitilde
ENCODING 126
SWIDTH 837 0
DWIDTH 8 0
BBX 6 2 1 2
BITMAP
64
98
ENDCHAR
STARTCHAR nonbreakingspace
ENCODING 160
SWIDTH 636 0
DWIDTH 6 0
BBX 1 1 0 0
BITMAP
00
ENDCHAR
STARTCHAR exclamdown
ENCODING 161
SWIDTH 400 0
DWIDTH 4 0
BBX 3 7 1 0
BITMAP
20
00
40
40
40
80
80
ENDCHAR
STARTCHAR cent
ENCODING 162
SWIDTH 636 0
DWIDTH 6 0
BBX 5 7 1 -1
BITMAP
10
38
D0
90
A0
70
20
ENDCHAR
STARTCHAR sterling
ENCODING 163
SWIDTH 636 0
DWIDTH 6 0
BBX 6 7 0 0
BITMAP
1C
20
20
78
20
40
F8
ENDCHAR
STARTCHAR currency
ENCODING 164
SWIDTH 636 0
DWIDTH 6 0
BBX 6 6 0 0
BITMAP
84
78
48
48
78
84
ENDCHAR
STARTCHAR yen
ENCODING 165
SWIDTH 636 0
DWIDTH 6 0
BBX 7 7 0 0
BITMAP
42
24
6C
10
FC
10
20
ENDCHAR
STARTCHAR brokenbar
ENCODING 166
SWIDTH 336 0
DWIDTH 3 0
BBX 1 9 1 -2
BITMAP
80
80
80
80
00
80
80
80
80
ENDCHAR
STARTCHAR section
ENCODING 167
SWIDTH 500 0
DWIDTH 5 0
BBX 5 8 0 -1
BITMAP
38
20
30
48
68
10
10
E0
ENDCHAR
STARTCHAR dieresis
ENCODING 168
SWIDTH 500 0
DWIDTH 5 0
BBX 3 1 1 6
BITMAP
A0
ENDCHAR
STARTCHAR copyright
ENCODING 169
SWIDTH 1000 0
DWIDTH 10 0
BBX 7 7 1 0
BITMAP
38
44
BA
A2
BA
44
38
ENDCHAR
STARTCHAR ordfeminine
ENCODING 170
SWIDTH 471 0
DWIDTH 5 0
BBX 4 6 1 1
BITMAP
70
70
90
E0
00
E0
ENDCHAR
STARTCHAR guillemotleft
ENCODING 171
SWIDTH 617 0
DWIDTH 6 0
BBX 5 4 1 1
BITMAP
28
50
B0
50
ENDCHAR
STARTCHAR logicalnot
ENCODING 172
SWIDTH 837 0
DWIDTH 8 0
BBX 6 3 1 1
BITMAP
FC
04
04
ENDCHAR
STARTCHAR sfthyphen
ENCODING 173
SWIDTH 360 0
DWIDTH 4 0
BBX 3 1 0 2
BITMAP
E0
ENDCHAR
STARTCHAR registered
ENCODING 174
SWIDTH 1000 0
DWIDTH 10 0
BBX 7 7 1 0
BITMAP
38
44
BA
BA
AA
44
38
ENDCHAR
STARTCHAR macron
ENCODING 175
SWIDTH 500 0
DWIDTH 5 0
BBX 3 1 1 6
BITMAP
E0
ENDCHAR
STARTCHAR degree
ENCODING 176
SWIDTH 500 0
DWIDTH 5 0
BBX 3 3 1 4
BITMAP
E0
A0
E0
ENDCHAR
STARTCHAR plusminus
ENCODING 177
SWIDTH 837 0
DWIDTH 8 0
BBX 7 6 1 0
BITMAP
10
10
FE
10
10
FE
ENDCHAR
STARTCHAR twosuperior
ENCODING 178
SWIDTH 400 0
DWIDTH 4 0
BBX 3 4 0 3
BITMAP
60
20
40
E0
ENDCHAR
STARTCHAR threesuperior
ENCODING 179
SWIDTH 400 0
DWIDTH 4 0
BBX 4 4 0 3
BITMAP
70
60
10
E0
ENDCHAR
STARTCHAR acute
ENCODING 180
SWIDTH 500 0
DWIDTH 5 0
BBX 2 2 1 6
BITMAP
40
80
ENDCHAR
STARTCHAR mu
ENCODING 181
SWIDTH 636 0
DWIDTH 6 0
BBX 6 7 0 -2
BITMAP
24
24
44
44
7C
80
80
ENDCHAR
STARTCHAR paragraph
ENCODING 182
SWIDTH 636 0
DWIDTH 6 0
BBX 6 8 1 -1
BITMAP
7C
F4
F4
E8
28
28
50
50
ENDCHAR
STARTCHAR periodcentered
ENCODING 183
SWIDTH 317 0
DWIDTH 3 0
BBX 1 1 1 3
BITMAP
80
ENDCHAR
STARTCHAR cedilla
ENCODING 184
SWIDTH 500 0
DWIDTH 5 0
BBX 2 2 1 -2
BITMAP
40
C0
ENDCHAR
STARTCHAR onesuperior
ENCODING 185
SWIDTH 400 0
DWIDTH 4 0
BBX 3 4 1 3
BITMAP
60
20
40
E0
ENDCHAR
STARTCHAR ordmasculine
ENCODING 186
SWIDTH 471 0
DWIDTH 5 0
BBX 4 6 1 1
BITMAP
70
90
90
E0
00
E0
ENDCHAR
STARTCHAR guillemotright
ENCODING 187
SWIDTH 617 0
DWIDTH 6 0
BBX 5 4 1 1
BITMAP
90
68
50
A0
ENDCHAR
STARTCHAR onequarter
ENCODING 188
SWIDTH 969 0
DWIDTH 10 0
BBX 7 7 1 0
BITMAP
62
24
48
F6
24
4E
84
ENDCHAR
STARTCHAR onehalf
ENCODING 189
SWIDTH 969 0
DWIDTH 10 0
BBX 8 7 1 0
BITMAP
62
24
48
F7
21
42
86
ENDCHAR
STARTCHAR threequarters
ENCODING 190
SWIDTH 969 0
DWIDTH 10 0
BBX 8 7 0 0
BITMAP
71
62
14
EB
12
27
42
ENDCHAR
STARTCHAR questiondown
ENCODING 191
SWIDTH 530 0
DWIDTH 5 0
BBX 4 7 0 0
BITMAP
10
00
10
20
40
80
F0
ENDCHAR
STARTCHAR Agrave
ENCODING 192
SWIDTH 684 0
DWIDTH 7 0
BBX 7 10 -1 0
BITMAP
08
04
00
04
0C
14
24
3E
42
82
ENDCHAR
STARTCHAR Aacute
ENCODING 193
SWIDTH 684 0
DWIDTH 7 0
BBX 7 10 -1 0
BITMAP
02
04
00
04
0C
14
24
3E
42
82
ENDCHAR
STARTCHAR Acircumflex
ENCODING 194
SWIDTH 684 0
DWIDTH 7 0
BBX 7 10 -1 0
BITMAP
06
0A
00
04
0C
14
24
3E
42
82
ENDCHAR
STARTCHAR Atilde
ENCODING 195
SWIDTH 684 0
DWIDTH 7 0
BBX 7 9 -1 0
BITMAP
0E
00
04
0C
14
24
3E
42
82
ENDCHAR
STARTCHAR Adieresis
ENCODING 196
SWIDTH 684 0
DWIDTH 7 0
BBX 7 9 -1 0
BITMAP
0A
00
04
0C
14
24
3E
42
82
ENDCHAR
STARTCHAR Aring
ENCODING 197
SWIDTH 684 0
DWIDTH 7 0
BBX 7 9 -1 0
BITMAP
1C
14
08
08
14
24
3C
42
82
ENDCHAR
STARTCHAR AE
ENCODING 198
SWIDTH 974 0
DWIDTH 10 0
BBX 10 7 0 0
BITMAP
0FC0
1400
1400
2780
3800
4800
8F80
ENDCHAR
STARTCHAR Ccedilla
ENCODING 199
SWIDTH 698 0
DWIDTH 7 0
BBX 7 9 0 -2
BITMAP
3C
62
C0
80
80
84
78
10
30
ENDCHAR
STARTCHAR Egrave
ENCODING 200
SWIDTH 631 0
DWIDTH 6 0
BBX 6 10 0 0
BITMAP
10
08
00
3C
20
40
78
40
80
F8
ENDCHAR
STARTCHAR Eacute
ENCODING 201
SWIDTH 631 0
DWIDTH 6 0
BBX 6 10 0 0
BITMAP
04
08
00
3C
20
40
78
40
80
F8
ENDCHAR
STARTCHAR Ecircumflex
ENCODING 202
SWIDTH 631 0
DWIDTH 6 0
BBX 6 10 0 0
BITMAP
18
14
00
3C
20
40
78
40
80
F8
ENDCHAR
STARTCHAR Edieresis
ENCODING 203
SWIDTH 631 0
DWIDTH 6 0
BBX 6 9 0 0
BITMAP
14
00
3C
20
40
78
40
80
F8
ENDCHAR
STARTCHAR Igrave
ENCODING 204
SWIDTH 294 0
DWIDTH 3 0
BBX 3 10 0 0
BITMAP
40
20
00
20
20
40
40
40
80
80
ENDCHAR
STARTCHAR Iacute
ENCODING 205
SWIDTH 294 0
DWIDTH 3 0
BBX 4 10 0 0
BITMAP
10
20
00
20
20
40
40
40
80
80
ENDCHAR
STARTCHAR Icircumflex
ENCODING 206
SWIDTH 294 0
DWIDTH 3 0
BBX 4 10 0 0
BITMAP
20
50
00
20
20
40
40
40
80
80
ENDCHAR
STARTCHAR Idieresis
ENCODING 207
SWIDTH 294 0
DWIDTH 3 0
BBX 4 9 0 0
BITMAP
50
00
20
20
40
40
40
80
80
ENDCHAR
STARTCHAR Eth
ENCODING 208
SWIDTH 774 0
DWIDTH 8 0
BBX 7 7 0 0
BITMAP
3C
22
42
F2
42
84
F8
ENDCHAR
STARTCHAR Ntilde
ENCODING 209
SWIDTH 748 0
DWIDTH 7 0
BBX 7 9 0 0
BITMAP
1C
00
22
22
54
54
54
88
88
ENDCHAR
STARTCHAR Ograve
ENCODING 210
SWIDTH 787 0
DWIDTH 8 0
BBX 7 10 0 0
BITMAP
08
08
00
3C
42
82
82
82
84
78
ENDCHAR
STARTCHAR Oacute
ENCODING 211
SWIDTH 787 0
DWIDTH 8 0
BBX 7 10 0 0
BITMAP
04
04
00
3C
42
82
82
82
84
78
ENDCHAR
STARTCHAR Ocircumflex
ENCODING 212
SWIDTH 787 0
DWIDTH 8 0
BBX 7 10 0 0
BITMAP
04
0C
00
3C
42
82
82
82
84
78
ENDCHAR
STARTCHAR Otilde
ENCODING 213
SWIDTH 787 0
DWIDTH 8 0
BBX 7 9 0 0
BITMAP
0C
00
3C
42
82
82
82
84
78
ENDCHAR
STARTCHAR Odieresis
ENCODING 214
SWIDTH 787 0
DWIDTH 8 0
BBX 7 9 0 0
BITMAP
0A
00
3C
42
82
82
82
84
78
ENDCHAR
STARTCHAR multiply
ENCODING 215
SWIDTH 837 0
DWIDTH 8 0
BBX 6 6 1 0
BITMAP
84
48
30
30
48
84
ENDCHAR
STARTCHAR Oslash
ENCODING 216
SWIDTH 787 0
DWIDTH 8 0
BBX 7 7 0 0
BITMAP
3E
46
CA
92
A6
C4
F8
ENDCHAR
STARTCHAR Ugrave
ENCODING 217
SWIDTH 731 0
DWIDTH 7 0
BBX 6 10 1 0
BITMAP
10
10
00
44
44
84
88
88
88
70
ENDCHAR
STARTCHAR Uacute
ENCODING 218
SWIDTH 731 0
DWIDTH 7 0
BBX 6 10 1 0
BITMAP
08
10
00
44
44
84
88
88
88
70
ENDCHAR
STARTCHAR Ucircumflex
ENCODING 219
SWIDTH 731 0
DWIDTH 7 0
BBX 6 10 1 0
BITMAP
18
28
00
44
44
84
88
88
88
70
ENDCHAR
STARTCHAR Udieresis
ENCODING 220
SWIDTH 731 0
DWIDTH 7 0
BBX 6 9 1 0
BITMAP
28
00
44
44
84
88
88
88
70
ENDCHAR
STARTCHAR Yacute
ENCODING 221
SWIDTH 610 0
DWIDTH 6 0
BBX 6 10 1 0
BITMAP
10
10
00
84
48
50
20
20
40
40
ENDCHAR
STARTCHAR Thorn
ENCODING 222
SWIDTH 607 0
DWIDTH 6 0
BBX 6 7 0 0
BITMAP
20
3C
44
44
78
80
80
ENDCHAR
STARTCHAR germandbls
ENCODING 223
SWIDTH 629 0
DWIDTH 6 0
BBX 5 8 0 0
BITMAP
30
48
58
60
F0
98
88
F0
ENDCHAR
STARTCHAR agrave
ENCODING 224
SWIDTH 612 0
DWIDTH 6 0
BBX 5 8 0 0
BITMAP
20
20
00
78
08
78
98
F0
ENDCHAR
STARTCHAR aacute
ENCODING 225
SWIDTH 612 0
DWIDTH 6 0
BBX 5 8 0 0
BITMAP
10
20
00
78
08
78
98
F0
ENDCHAR
STARTCHAR acircumflex
ENCODING 226
SWIDTH 612 0
DWIDTH 6 0
BBX 5 8 0 0
BITMAP
10
30
00
78
08
78
98
F0
ENDCHAR
STARTCHAR atilde
ENCODING 227
SWIDTH 612 0
DWIDTH 6 0
BBX 5 8 0 0
BITMAP
70
B0
00
78
08
78
98
F0
ENDCHAR
STARTCHAR adieresis
ENCODING 228
SWIDTH 612 0
DWIDTH 6 0
BBX 5 7 0 0
BITMAP
50
00
78
08
78
98
F0
ENDCHAR
STARTCHAR aring
ENCODING 229
SWIDTH 612 0
DWIDTH 6 0
BBX 5 9 0 0
BITMAP
30
50
30
00
78
08
78
98
F0
ENDCHAR
STARTCHAR ae
ENCODING 230
SWIDTH 995 0
DWIDTH 10 0
BBX 9 5 0 0
BITMAP
7F00
0880
7F80
8800
FF00
ENDCHAR
STARTCHAR ccedilla
ENCODING 231
SWIDTH 549 0
DWIDTH 6 0
BBX 5 7 0 -2
BITMAP
78
C0
80
80
70
20
20
ENDCHAR
STARTCHAR egrave
ENCODING 232
SWIDTH 615 0
DWIDTH 6 0
BBX 5 8 0 0
BITMAP
20
20
00
70
C8
F8
80
70
ENDCHAR
STARTCHAR eacute
ENCODING 233
SWIDTH 615 0
DWIDTH 6 0
BBX 5 8 0 0
BITMAP
10
20
00
70
C8
F8
80
70
ENDCHAR
STARTCHAR ecircumflex
ENCODING 234
SWIDTH 615 0
DWIDTH 6 0
BBX 5 8 0 0
BITMAP
10
30
00
70
C8
F8
80
70
ENDCHAR
STARTCHAR edieresis
ENCODING 235
SWIDTH 615 0
DWIDTH 6 0
BBX 5 7 0 0
BITMAP
50
00
70
C8
F8
80
70
ENDCHAR
STARTCHAR igrave
ENCODING 236
SWIDTH 277 0
DWIDTH 3 0
BBX 2 8 0 0
BITMAP
80
80
00
40
40
C0
80
80
ENDCHAR
STARTCHAR iacute
ENCODING 237
SWIDTH 277 0
DWIDTH 3 0
BBX 2 8 0 0
BITMAP
40
80
00
40
40
C0
80
80
ENDCHAR
STARTCHAR icircumflex
ENCODING 238
SWIDTH 277 0
DWIDTH 3 0
BBX 3 8 0 0
BITMAP
40
A0
00
40
40
C0
80
80
ENDCHAR
STARTCHAR idieresis
ENCODING 239
SWIDTH 277 0
DWIDTH 3 0
BBX 3 7 0 0
BITMAP
A0
00
40
40
C0
80
80
ENDCHAR
STARTCHAR eth
ENCODING 240
SWIDTH 611 0
DWIDTH 6 0
BBX 5 8 0 0
BITMAP
38
70
50
78
C8
88
98
70
ENDCHAR
STARTCHAR ntilde
ENCODING 241
SWIDTH 633 0
DWIDTH 6 0
BBX 5 8 0 0
BITMAP
68
B0
00
78
48
C8
90
90
ENDCHAR
STARTCHAR ograve
ENCODING 242
SWIDTH 611 0
DWIDTH 6 0
BBX 5 8 0 0
BITMAP
20
20
00
70
C8
88
98
70
ENDCHAR
STARTCHAR oacute
ENCODING 243
SWIDTH 611 0
DWIDTH 6 0
BBX 5 8 0 0
BITMAP
10
20
00
70
C8
88
98
70
ENDCHAR
STARTCHAR ocircumflex
ENCODING 244
SWIDTH 611 0
DWIDTH 6 0
BBX 5 8 0 0
BITMAP
10
30
00
70
C8
88
98
70
ENDCHAR
STARTCHAR otilde
ENCODING 245
SWIDTH 611 0
DWIDTH 6 0
BBX 5 8 0 0
BITMAP
70
B0
00
70
C8
88
98
70
ENDCHAR
STARTCHAR odieresis
ENCODING 246
SWIDTH 611 0
DWIDTH 6 0
BBX 5 7 0 0
BITMAP
50
00
70
C8
88
98
70
ENDCHAR
STARTCHAR divide
ENCODING 247
SWIDTH 837 0
DWIDTH 8 0
BBX 7 5 1 1
BITMAP
10
00
FE
00
10
ENDCHAR
STARTCHAR oslash
ENCODING 248
SWIDTH 611 0
DWIDTH 6 0
BBX 6 5 -1 0
BITMAP
3C
6C
54
6C
F8
ENDCHAR
STARTCHAR ugrave
ENCODING 249
SWIDTH 633 0
DWIDTH 6 0
BBX 5 8 0 0
BITMAP
20
20
00
48
48
98
90
F0
ENDCHAR
STARTCHAR uacute
ENCODING 250
SWIDTH 633 0
DWIDTH 6 0
BBX 5 8 0 0
BITMAP
10
20
00
48
48
98
90
F0
ENDCHAR
STARTCHAR ucircumflex
ENCODING 251
SWIDTH 633 0
DWIDTH 6 0
BBX 5 8 0 0
BITMAP
10
30
00
48
48
98
90
F0
ENDCHAR
STARTCHAR udieresis
ENCODING 252
SWIDTH 633 0
DWIDTH 6 0
BBX 5 7 0 0
BITMAP
50
00
48
48
98
90
F0
ENDCHAR
STARTCHAR yacute
ENCODING 253
SWIDTH 591 0
DWIDTH 6 0
BBX 6 10 0 -2
BITMAP
10
20
00
44
48
50
20
20
40
80
ENDCHAR
STARTCHAR thorn
ENCODING 254
SWIDTH 634 0
DWIDTH 6 0
BBX 6 10 -1 -2
BITMAP
20
20
60
5C
64
44
4C
F8
80
80
ENDCHAR
STARTCHAR ydieresis
ENCODING 255
SWIDTH 591 0
DWIDTH 6 0
BBX 6 9 0 -2
BITMAP
50
00
44
48
50
20
20
40
80
ENDCHAR
STARTCHAR Cacute
ENCODING 262
SWIDTH 698 0
DWIDTH 7 0
BBX 7 10 0 0
BITMAP
04
08
00
3C
62
C0
80
80
84
78
ENDCHAR
STARTCHAR cacute
ENCODING 263
SWIDTH 549 0
DWIDTH 6 0
BBX 5 8 0 0
BITMAP
10
20
00
78
C0
80
80
70
ENDCHAR
STARTCHAR Ccaron
ENCODING 268
SWIDTH 698 0
DWIDTH 7 0
BBX 7 10 0 0
BITMAP
14
0C
00
3C
62
C0
80
80
84
78
ENDCHAR
STARTCHAR ccaron
ENCODING 269
SWIDTH 549 0
DWIDTH 6 0
BBX 5 8 0 0
BITMAP
50
20
00
78
C0
80
80
70
ENDCHAR
STARTCHAR dcroat
ENCODING 273
SWIDTH 634 0
DWIDTH 6 0
BBX 7 8 0 0
BITMAP
04
1E
0C
78
C8
88
90
F0
ENDCHAR
STARTCHAR Gbreve
ENCODING 286
SWIDTH 774 0
DWIDTH 8 0
BBX 7 10 0 0
BITMAP
14
0C
00
3C
62
C0
8E
82
84
7C
ENDCHAR
STARTCHAR gbreve
ENCODING 287
SWIDTH 634 0
DWIDTH 6 0
BBX 6 10 0 -2
BITMAP
28
30
00
74
CC
88
88
78
10
F0
ENDCHAR
STARTCHAR Idotaccent
ENCODING 304
SWIDTH 294 0
DWIDTH 3 0
BBX 3 9 0 0
BITMAP
20
00
20
20
40
40
40
80
80
ENDCHAR
STARTCHAR dotlessi
ENCODING 305
SWIDTH 277 0
DWIDTH 3 0
BBX 2 5 0 0
BITMAP
40
40
C0
80
80
ENDCHAR
STARTCHAR Lslash
ENCODING 321
SWIDTH 562 0
DWIDTH 6 0
BBX 5 7 0 0
BITMAP
20
20
50
60
C0
80
F8
ENDCHAR
STARTCHAR lslash
ENCODING 322
SWIDTH 287 0
DWIDTH 3 0
BBX 3 8 0 0
BITMAP
20
20
40
60
C0
40
80
80
ENDCHAR
STARTCHAR OE
ENCODING 338
SWIDTH 1069 0
DWIDTH 11 0
BBX 10 7 0 0
BITMAP
3FC0
6400
8400
8780
8400
C800
7F80
ENDCHAR
STARTCHAR oe
ENCODING 339
SWIDTH 1027 0
DWIDTH 10 0
BBX 9 5 0 0
BITMAP
7700
C880
8F80
9800
7F00
ENDCHAR
STARTCHAR Scedilla
ENCODING 350
SWIDTH 634 0
DWIDTH 6 0
BBX 7 9 0 -2
BITMAP
3C
42
40
38
04
84
78
20
20
ENDCHAR
STARTCHAR scedilla
ENCODING 351
SWIDTH 520 0
DWIDTH 5 0
BBX 5 7 -1 -2
BITMAP
38
40
38
08
F0
10
30
ENDCHAR
STARTCHAR Scaron
ENCODING 352
SWIDTH 634 0
DWIDTH 6 0
BBX 7 10 0 0
BITMAP
18
18
00
3C
42
40
38
04
84
78
ENDCHAR
STARTCHAR scaron
ENCODING 353
SWIDTH 520 0
DWIDTH 5 0
BBX 5 8 -1 0
BITMAP
28
10
00
38
40
38
08
F0
ENDCHAR
STARTCHAR Ydieresis
ENCODING 376
SWIDTH 610 0
DWIDTH 6 0
BBX 6 9 1 0
BITMAP
28
00
84
48
50
20
20
40
40
ENDCHAR
STARTCHAR Zcaron
ENCODING 381
SWIDTH 685 0
DWIDTH 7 0
BBX 7 10 0 0
BITMAP
14
08
00
7E
04
08
10
20
40
FC
ENDCHAR
STARTCHAR zcaron
ENCODING 382
SWIDTH 524 0
DWIDTH 5 0
BBX 5 8 0 0
BITMAP
50
20
00
78
10
20
40
F0
ENDCHAR
STARTCHAR florin
ENCODING 402
SWIDTH 636 0
DWIDTH 6 0
BBX 6 10 0 -2
BITMAP
0C
10
10
10
78
20
20
20
20
C0
ENDCHAR
STARTCHAR circumflex
ENCODING 710
SWIDTH 500 0
DWIDTH 5 0
BBX 3 2 1 6
BITMAP
40
A0
ENDCHAR
STARTCHAR caron
ENCODING 711
SWIDTH 500 0
DWIDTH 5 0
BBX 3 2 1 6
BITMAP
A0
40
ENDCHAR
STARTCHAR breve
ENCODING 728
SWIDTH 500 0
DWIDTH 5 0
BBX 3 2 1 6
BITMAP
A0
C0
ENDCHAR
STARTCHAR dotaccent
ENCODING 729
SWIDTH 500 0
DWIDTH 5 0
BBX 1 1 2 7
BITMAP
80
ENDCHAR
STARTCHAR ring
ENCODING 730
SWIDTH 500 0
DWIDTH 5 0
BBX 3 3 1 6
BITMAP
E0
A0
E0
ENDCHAR
STARTCHAR ogonek
ENCODING 731
SWIDTH 500 0
DWIDTH 5 0
BBX 2 2 1 -2
BITMAP
80
C0
ENDCHAR
STARTCHAR tilde
ENCODING 732
SWIDTH 500 0
DWIDTH 5 0
BBX 4 2 0 6
BITMAP
50
A0
ENDCHAR
STARTCHAR hungarumlaut
ENCODING 733
SWIDTH 500 0
DWIDTH 5 0
BBX 4 2 1 6
BITMAP
50
A0
ENDCHAR
STARTCHAR Omega
ENCODING 937
SWIDTH 764 0
DWIDTH 8 0
BBX 7 7 0 0
BITMAP
3C
C6
82
82
82
44
EE
ENDCHAR
STARTCHAR pi
ENCODING 960
SWIDTH 588 0
DWIDTH 6 0
BBX 6 5 0 0
BITMAP
FC
48
50
50
58
ENDCHAR
STARTCHAR endash
ENCODING 8211
SWIDTH 500 0
DWIDTH 5 0
BBX 5 1 0 2
BITMAP
F8
ENDCHAR
STARTCHAR emdash
ENCODING 8212
SWIDTH 1000 0
DWIDTH 10 0
BBX 10 1 0 2
BITMAP
FFC0
ENDCHAR
STARTCHAR quoteleft
ENCODING 8216
SWIDTH 317 0
DWIDTH 3 0
BBX 2 2 1 5
BITMAP
40
80
ENDCHAR
STARTCHAR quoteright
ENCODING 8217
SWIDTH 317 0
DWIDTH 3 0
BBX 2 2 1 5
BITMAP
40
80
ENDCHAR
STARTCHAR quotesinglbase
ENCODING 8218
SWIDTH 317 0
DWIDTH 3 0
BBX 2 2 0 -1
BITMAP
40
80
ENDCHAR
STARTCHAR quotedblleft
ENCODING 8220
SWIDTH 518 0
DWIDTH 5 0
BBX 4 2 1 5
BITMAP
50
A0
ENDCHAR
STARTCHAR quotedblright
ENCODING 8221
SWIDTH 518 0
DWIDTH 5 0
BBX 4 2 1 5
BITMAP
50
A0
ENDCHAR
STARTCHAR quotedblbase
ENCODING 8222
SWIDTH 518 0
DWIDTH 5 0
BBX 4 2 0 -1
BITMAP
50
A0
ENDCHAR
STARTCHAR dagger
ENCODING 8224
SWIDTH 500 0
DWIDTH 5 0
BBX 5 8 0 -1
BITMAP
20
20
F8
20
20
60
40
40
ENDCHAR
STARTCHAR daggerdbl
ENCODING 8225
SWIDTH 500 0
DWIDTH 5 0
BBX 5 8 0 -1
BITMAP
20
20
F8
20
20
F0
40
40
ENDCHAR
STARTCHAR bullet
ENCODING 8226
SWIDTH 589 0
DWIDTH 6 0
BBX 3 3 2 2
BITMAP
E0
E0
E0
ENDCHAR
STARTCHAR ellipsis
ENCODING 8230
SWIDTH 1000 0
DWIDTH 10 0
BBX 7 1 1 0
BITMAP
92
ENDCHAR
STARTCHAR perthousand
ENCODING 8240
SWIDTH 1350 0
DWIDTH 14 0
BBX 12 7 1 0
BITMAP
6200
A400
A800
D330
1550
2550
4660
ENDCHAR
STARTCHAR guilsinglleft
ENCODING 8249
SWIDTH 399 0
DWIDTH 4 0
BBX 3 4 1 1
BITMAP
20
40
80
40
ENDCHAR
STARTCHAR guilsinglright
ENCODING 8250
SWIDTH 399 0
DWIDTH 4 0
BBX 3 4 1 1
BITMAP
40
20
40
80
ENDCHAR
STARTCHAR Euro
ENCODING 8364
SWIDTH 636 0
DWIDTH 6 0
BBX 6 7 0 0
BITMAP
1C
24
F8
40
F0
40
38
ENDCHAR
STARTCHAR trademark
ENCODING 8482
SWIDTH 1000 0
DWIDTH 10 0
BBX 7 3 1 4
BITMAP
EA
4E
4A
ENDCHAR
STARTCHAR partialdiff
ENCODING 8706
SWIDTH 517 0
DWIDTH 5 0
BBX 4 6 1 0
BITMAP
60
10
70
90
90
E0
ENDCHAR
STARTCHAR Delta
ENCODING 8710
SWIDTH 668 0
DWIDTH 7 0
BBX 7 7 0 0
BITMAP
10
28
28
44
44
44
FE
ENDCHAR
STARTCHAR product
ENCODING 8719
SWIDTH 756 0
DWIDTH 8 0
BBX 6 9 1 -2
BITMAP
FC
84
84
84
84
84
84
84
84
ENDCHAR
STARTCHAR summation
ENCODING 8721
SWIDTH 673 0
DWIDTH 7 0
BBX 6 9 0 -2
BITMAP
FC
40
20
10
10
30
20
40
FC
ENDCHAR
STARTCHAR minus
ENCODING 8722
SWIDTH 837 0
DWIDTH 8 0
BBX 6 1 1 3
BITMAP
FC
ENDCHAR
STARTCHAR fraction
ENCODING 8725
SWIDTH 166 0
DWIDTH 2 0
BBX 7 7 -3 0
BITMAP
02
04
08
10
20
40
80
ENDCHAR
STARTCHAR periodcentered
ENCODING 8729
SWIDTH 317 0
DWIDTH 3 0
BBX 1 1 1 3
BITMAP
80
ENDCHAR
STARTCHAR radical
ENCODING 8730
SWIDTH 637 0
DWIDTH 6 0
BBX 5 8 1 0
BITMAP
08
10
10
20
A0
A0
C0
40
ENDCHAR
STARTCHAR infinity
ENCODING 8734
SWIDTH 833 0
DWIDTH 8 0
BBX 6 4 1 1
BITMAP
DC
B4
B4
CC
ENDCHAR
STARTCHAR integral
ENCODING 8747
SWIDTH 520 0
DWIDTH 5 0
BBX 5 9 0 -1
BITMAP
18
20
20
20
20
20
20
20
C0
ENDCHAR
STARTCHAR approxequal
ENCODING 8776
SWIDTH 837 0
DWIDTH 8 0
BBX 6 4 1 1
BITMAP
64
98
64
98
ENDCHAR
STARTCHAR notequal
ENCODING 8800
SWIDTH 837 0
DWIDTH 8 0
BBX 6 7 1 0
BITMAP
08
08
FC
20
FC
40
80
ENDCHAR
STARTCHAR lessequal
ENCODING 8804
SWIDTH 837 0
DWIDTH 8 0
BBX 6 6 1 0
BITMAP
0C
F0
F0
0C
00
FC
ENDCHAR
STARTCHAR greaterequal
ENCODING 8805
SWIDTH 837 0
DWIDTH 8 0
BBX 6 6 1 0
BITMAP
C0
3C
3C
C0
00
FC
ENDCHAR
STARTCHAR lozenge
ENCODING 9674
SWIDTH 494 0
DWIDTH 5 0
BBX 5 10 0 -2
BITMAP
20
60
50
90
88
88
90
50
60
20
ENDCHAR
STARTCHAR fi
ENCODING 64257
SWIDTH 645 0
DWIDTH 6 0
BBX 6 8 0 0
BITMAP
34
40
40
E8
48
58
90
90
ENDCHAR
STARTCHAR fl
ENCODING 64258
SWIDTH 645 0
DWIDTH 6 0
BBX 6 8 0 0
BITMAP
3C
44
48
E8
48
48
90
90
ENDCHAR
STARTCHAR .notdef
ENCODING -1
SWIDTH 600 0
DWIDTH 6 0
BBX 5 9 1 -2
BITMAP
F8
88
88
88
88
88
88
88
F8
ENDCHAR
STARTCHAR .null
ENCODING -1
SWIDTH 0 0
DWIDTH 0 0
BBX 1 1 0 0
BITMAP
00
ENDCHAR
STARTCHAR nonmarkingreturn
ENCODING -1
SWIDTH 317 0
DWIDTH 3 0
BBX 1 1 0 0
BITMAP
00
ENDCHAR
STARTCHAR c6459
ENCODING -1
SWIDTH 500 0
DWIDTH 5 0
BBX 3 1 2 6
BITMAP
A0
ENDCHAR
STARTCHAR c6460
ENCODING -1
SWIDTH 500 0
DWIDTH 5 0
BBX 2 2 3 6
BITMAP
40
80
ENDCHAR
STARTCHAR c6461
ENCODING -1
SWIDTH 500 0
DWIDTH 5 0
BBX 3 1 2 6
BITMAP
E0
ENDCHAR
STARTCHAR c6462
ENCODING -1
SWIDTH 500 0
DWIDTH 5 0
BBX 2 2 2 6
BITMAP
80
40
ENDCHAR
STARTCHAR c6463
ENCODING -1
SWIDTH 500 0
DWIDTH 5 0
BBX 3 2 2 6
BITMAP
40
A0
ENDCHAR
STARTCHAR c6466
ENCODING -1
SWIDTH 500 0
DWIDTH 5 0
BBX 3 2 2 6
BITMAP
A0
40
ENDCHAR
STARTCHAR c6467
ENCODING -1
SWIDTH 400 0
DWIDTH 4 0
BBX 4 4 -1 3
BITMAP
20
60
F0
40
ENDCHAR
STARTCHAR c6468
ENCODING -1
SWIDTH 500 0
DWIDTH 5 0
BBX 3 2 2 6
BITMAP
A0
C0
ENDCHAR
STARTCHAR c6469
ENCODING -1
SWIDTH 500 0
DWIDTH 5 0
BBX 1 1 3 6
BITMAP
80
ENDCHAR
ENDFONT
